<mxfile host="app.diagrams.net" modified="2023-07-30T09:39:21.935Z" agent="Mozilla/5.0 (Windows NT 10.0; Win64; x64) AppleWebKit/537.36 (KHTML, like Gecko) Chrome/92.0.4515.131 Safari/537.36 SLBrowser/8.0.1.4031 SLBChan/103" etag="mBKWtWqD2kdte7NuiesA" version="21.6.6" type="device">
  <diagram name="第 1 页" id="1sL6LEsHpgQAwxK-63s6">
    <mxGraphModel dx="1221" dy="749" grid="1" gridSize="10" guides="1" tooltips="1" connect="1" arrows="1" fold="1" page="1" pageScale="1" pageWidth="827" pageHeight="1169" math="0" shadow="0">
      <root>
        <mxCell id="0" />
        <mxCell id="1" parent="0" />
        <mxCell id="_KD7Gp2ULHyIA7FplCuo-3" value="" style="edgeStyle=orthogonalEdgeStyle;rounded=0;orthogonalLoop=1;jettySize=auto;html=1;" parent="1" source="jujXaldOQ1BQFacmlSp4-1" target="_KD7Gp2ULHyIA7FplCuo-2" edge="1">
          <mxGeometry relative="1" as="geometry" />
        </mxCell>
        <mxCell id="jujXaldOQ1BQFacmlSp4-1" value="" style="rounded=0;whiteSpace=wrap;html=1;" parent="1" vertex="1">
          <mxGeometry x="70" y="90" width="280" height="90" as="geometry" />
        </mxCell>
        <mxCell id="jujXaldOQ1BQFacmlSp4-2" value="CFLock" style="rounded=0;whiteSpace=wrap;html=1;fillColor=#dae8fc;strokeColor=#6c8ebf;fontSize=20;" parent="1" vertex="1">
          <mxGeometry x="90" y="105" width="120" height="60" as="geometry" />
        </mxCell>
        <mxCell id="jujXaldOQ1BQFacmlSp4-3" value="Key" style="rounded=0;whiteSpace=wrap;html=1;fillColor=#ffe6cc;strokeColor=#d79b00;fontSize=20;" parent="1" vertex="1">
          <mxGeometry x="210" y="105" width="120" height="60" as="geometry" />
        </mxCell>
        <mxCell id="_KD7Gp2ULHyIA7FplCuo-1" value="Key" style="text;html=1;align=center;verticalAlign=middle;whiteSpace=wrap;rounded=0;fontSize=20;fontColor=#FF5500;" parent="1" vertex="1">
          <mxGeometry x="160" y="40" width="100" height="50" as="geometry" />
        </mxCell>
        <mxCell id="_KD7Gp2ULHyIA7FplCuo-2" value="Lock.ToBytes()" style="rounded=0;whiteSpace=wrap;html=1;fillColor=#d5e8d4;strokeColor=#82b366;fontSize=20;" parent="1" vertex="1">
          <mxGeometry x="550" y="90" width="160" height="90" as="geometry" />
        </mxCell>
        <mxCell id="_KD7Gp2ULHyIA7FplCuo-4" value="Value" style="text;html=1;align=center;verticalAlign=middle;whiteSpace=wrap;rounded=0;fontSize=20;fontColor=#FF5500;" parent="1" vertex="1">
          <mxGeometry x="580" y="40" width="100" height="50" as="geometry" />
        </mxCell>
        <mxCell id="_KD7Gp2ULHyIA7FplCuo-10" value="" style="edgeStyle=orthogonalEdgeStyle;rounded=0;orthogonalLoop=1;jettySize=auto;html=1;" parent="1" source="_KD7Gp2ULHyIA7FplCuo-11" target="_KD7Gp2ULHyIA7FplCuo-15" edge="1">
          <mxGeometry relative="1" as="geometry" />
        </mxCell>
        <mxCell id="_KD7Gp2ULHyIA7FplCuo-11" value="" style="rounded=0;whiteSpace=wrap;html=1;" parent="1" vertex="1">
          <mxGeometry x="70" y="270" width="400" height="90" as="geometry" />
        </mxCell>
        <mxCell id="_KD7Gp2ULHyIA7FplCuo-12" value="CFWrite" style="rounded=0;whiteSpace=wrap;html=1;fillColor=#dae8fc;strokeColor=#6c8ebf;fontSize=20;" parent="1" vertex="1">
          <mxGeometry x="90" y="285" width="120" height="60" as="geometry" />
        </mxCell>
        <mxCell id="_KD7Gp2ULHyIA7FplCuo-13" value="Key" style="rounded=0;whiteSpace=wrap;html=1;fillColor=#ffe6cc;strokeColor=#d79b00;fontSize=20;" parent="1" vertex="1">
          <mxGeometry x="210" y="285" width="120" height="60" as="geometry" />
        </mxCell>
        <mxCell id="_KD7Gp2ULHyIA7FplCuo-14" value="Key" style="text;html=1;align=center;verticalAlign=middle;whiteSpace=wrap;rounded=0;fontSize=20;fontColor=#FF5500;" parent="1" vertex="1">
          <mxGeometry x="220" y="220" width="100" height="50" as="geometry" />
        </mxCell>
        <mxCell id="_KD7Gp2ULHyIA7FplCuo-15" value="Write.ToBytes()" style="rounded=0;whiteSpace=wrap;html=1;fillColor=#d5e8d4;strokeColor=#82b366;fontSize=20;" parent="1" vertex="1">
          <mxGeometry x="550" y="270" width="160" height="90" as="geometry" />
        </mxCell>
        <mxCell id="_KD7Gp2ULHyIA7FplCuo-16" value="Value" style="text;html=1;align=center;verticalAlign=middle;whiteSpace=wrap;rounded=0;fontSize=20;fontColor=#FF5500;" parent="1" vertex="1">
          <mxGeometry x="580" y="210" width="100" height="50" as="geometry" />
        </mxCell>
        <mxCell id="_KD7Gp2ULHyIA7FplCuo-17" value="" style="edgeStyle=orthogonalEdgeStyle;rounded=0;orthogonalLoop=1;jettySize=auto;html=1;" parent="1" source="_KD7Gp2ULHyIA7FplCuo-18" target="_KD7Gp2ULHyIA7FplCuo-22" edge="1">
          <mxGeometry relative="1" as="geometry" />
        </mxCell>
        <mxCell id="_KD7Gp2ULHyIA7FplCuo-18" value="" style="rounded=0;whiteSpace=wrap;html=1;" parent="1" vertex="1">
          <mxGeometry x="70" y="460" width="400" height="90" as="geometry" />
        </mxCell>
        <mxCell id="_KD7Gp2ULHyIA7FplCuo-19" value="CFDefault" style="rounded=0;whiteSpace=wrap;html=1;fillColor=#dae8fc;strokeColor=#6c8ebf;fontSize=20;" parent="1" vertex="1">
          <mxGeometry x="90" y="475" width="120" height="60" as="geometry" />
        </mxCell>
        <mxCell id="_KD7Gp2ULHyIA7FplCuo-20" value="Key" style="rounded=0;whiteSpace=wrap;html=1;fillColor=#ffe6cc;strokeColor=#d79b00;fontSize=20;" parent="1" vertex="1">
          <mxGeometry x="210" y="475" width="120" height="60" as="geometry" />
        </mxCell>
        <mxCell id="_KD7Gp2ULHyIA7FplCuo-21" value="Key" style="text;html=1;align=center;verticalAlign=middle;whiteSpace=wrap;rounded=0;fontSize=20;fontColor=#FF5500;" parent="1" vertex="1">
          <mxGeometry x="220" y="410" width="100" height="50" as="geometry" />
        </mxCell>
        <mxCell id="_KD7Gp2ULHyIA7FplCuo-22" value="Value" style="rounded=0;whiteSpace=wrap;html=1;fillColor=#d5e8d4;strokeColor=#82b366;fontSize=20;" parent="1" vertex="1">
          <mxGeometry x="550" y="460" width="160" height="90" as="geometry" />
        </mxCell>
        <mxCell id="_KD7Gp2ULHyIA7FplCuo-23" value="Value" style="text;html=1;align=center;verticalAlign=middle;whiteSpace=wrap;rounded=0;fontSize=20;fontColor=#FF5500;" parent="1" vertex="1">
          <mxGeometry x="580" y="400" width="100" height="50" as="geometry" />
        </mxCell>
        <mxCell id="_KD7Gp2ULHyIA7FplCuo-24" value="ComTs" style="rounded=0;whiteSpace=wrap;html=1;fillColor=#f8cecc;strokeColor=#b85450;fontSize=20;" parent="1" vertex="1">
          <mxGeometry x="330" y="285" width="120" height="60" as="geometry" />
        </mxCell>
        <mxCell id="_KD7Gp2ULHyIA7FplCuo-25" value="StartTs" style="rounded=0;whiteSpace=wrap;html=1;fillColor=#f8cecc;strokeColor=#b85450;fontSize=20;" parent="1" vertex="1">
          <mxGeometry x="330" y="475" width="120" height="60" as="geometry" />
        </mxCell>
        <mxCell id="qLARMAq4r1UyeMIVmzjw-1" value="Lock" style="text;html=1;strokeColor=none;fillColor=none;align=center;verticalAlign=middle;whiteSpace=wrap;rounded=0;fontSize=16;" vertex="1" parent="1">
          <mxGeometry x="10" y="30" width="80" height="30" as="geometry" />
        </mxCell>
        <mxCell id="qLARMAq4r1UyeMIVmzjw-2" value="Write" style="text;html=1;strokeColor=none;fillColor=none;align=center;verticalAlign=middle;whiteSpace=wrap;rounded=0;fontSize=16;" vertex="1" parent="1">
          <mxGeometry x="10" y="220" width="80" height="30" as="geometry" />
        </mxCell>
        <mxCell id="qLARMAq4r1UyeMIVmzjw-3" value="Default" style="text;html=1;strokeColor=none;fillColor=none;align=center;verticalAlign=middle;whiteSpace=wrap;rounded=0;fontSize=16;" vertex="1" parent="1">
          <mxGeometry x="10" y="400" width="80" height="30" as="geometry" />
        </mxCell>
      </root>
    </mxGraphModel>
  </diagram>
</mxfile>
